<svg xmlns="http://www.w3.org/2000/svg" viewBox="0 0 419.1 147.9"><style>.i{fill:#8AB925}.t{fill:#FFFFFF}</style><path class="i" d="M71.7,67.2c-3,0.1-11.2-8.2-10.9-10.5c0.2-1.2,0.8-2.2,1.6-3c9.6-9.7,19.3-19.4,29.1-29.1c2.6-2.6,4-2.5,6.6-0.1c1.9,1.7,3.7,3.6,5.5,5.5c2.3,2.5,2.4,3.8,0.1,6.2C93.8,46,84,55.8,74.2,65.6C73.4,66.2,72.6,66.8,71.7,67.2"/><path class="i" d="M54.9,83.7c-0.5,1.1-1.2,2.1-1.9,3c-9.8,9.8-19.5,19.6-29.4,29.4c-2.2,2.2-3.5,2.1-5.8,0.1c-2.1-1.8-4-3.8-5.8-5.8c-2.2-2.5-2.2-3.7,0-6.2s4.6-4.6,6.9-6.9c6.9-6.9,13.8-13.8,20.7-20.7c4.5-4.5,5.1-4.5,9.5-0.2c1.5,1.4,3,2.9,4.3,4.4C53.9,81.8,54.4,82.7,54.9,83.7"/><path class="i" d="M71.3,73.5c1.1,0.6,2.1,1.3,3,2c9.6,9.5,19.1,19.1,28.6,28.7c2.4,2.4,2.3,3.6,0.1,6.1c-1.5,1.7-3.1,3.2-4.7,4.7c-3,2.8-4,2.8-6.9,0.1c-2.6-2.5-5.1-5.1-7.6-7.6c-6.7-6.7-13.3-13.3-19.9-20c-3.6-3.6-3.6-4.3-0.1-7.9c1.5-1.6,3.1-3.2,4.8-4.7C69.4,74.3,70.3,73.8,71.3,73.5"/><path class="i" d="M20.6,22.8c1.1,0.5,2.1,1.2,3.1,1.9c9.7,9.6,19.4,19.3,29,29c2.4,2.4,2.3,3.7,0.2,6.2c-1.7,1.9-3.5,3.7-5.4,5.4c-2.5,2.3-3.7,2.3-6.1,0c-3.1-2.9-6.1-6-9.1-9C26,50,19.6,43.8,13.4,37.5c-3.9-4-3.9-4.7,0.1-8.8c1.3-1.4,2.6-2.7,4-4C18.5,24,19.5,23.4,20.6,22.8"/><path class="i" d="M49.5,22.4v-6.6c0-2.2,1.1-3.6,3.3-3.8c3.4-0.1,6.8-0.1,10.2,0c2.3,0.1,3.4,1.5,3.4,3.7c0.1,4.6,0.1,9.2,0,13.8c0.1,1.9-1.4,3.5-3.3,3.5c-0.1,0-0.2,0-0.3,0c-3.2,0.1-6.5,0.1-9.7,0c-2.5-0.1-3.7-1.5-3.7-4C49.5,26.8,49.5,24.6,49.5,22.4"/><path class="i" d="M9.9,78.4c-1.9,0-3.8,0.1-5.6,0c-3.3-0.2-4-0.7-4.2-3.8c-0.2-2.9,0-5.8,0-8.7c0-2.5,1.4-3.7,3.9-3.7c4.3,0,8.5,0,12.8,0c2.5,0,3.7,1.3,3.7,3.8c0,2.9,0,5.8,0,8.7c0,2.6-1.4,3.7-3.9,3.7L9.9,78.4L9.9,78.4z"/><path class="i" d="M105.5,78.2c-10.2,0-9.8,1.4-9.7-10.1c0-1-0.2-2.2,0.2-3c0.6-1.1,1.6-2.6,2.6-2.6c4.8-0.3,9.5-0.2,14.3-0.1c1.6-0.1,2.9,1.1,3,2.7c0,0.1,0,0.1,0,0.2c0.2,3.2,0.1,6.5,0,9.7c0.1,1.7-1.1,3.1-2.8,3.2c-0.2,0-0.3,0-0.5,0C110.2,78.3,107.8,78.2,105.5,78.2"/><path class="i" d="M50,117.4c0-8.1-1.5-9.3,9.6-8.9c4.1,0.1,5.7,1.6,5.9,5.5c0.2,3.2,0,6.5,0,9.8c0,2.5-1.2,3.8-3.7,3.9c-2.2,0-4.5,0.2-6.7,0c-3.5-0.2-4.8-1.6-5.1-5.1C49.8,120.8,50,119.1,50,117.4"/><path class="t" d="M165,31v17.6c0,1.8,0.8,3.4,2.4,4.7c1.6,1.3,3.6,1.9,5.9,1.9h0.9c2.4,0,3.7,1.2,3.7,3.5v1.8c0,2.3-1.2,3.5-3.7,3.5h-0.9c-5.3,0-9.8-1.5-13.6-4.5s-5.7-6.6-5.7-10.9V14.6c0-2.3,1.2-3.5,3.7-3.5h3.7c2.4,0,3.7,1.2,3.7,3.5v7.5h9.2c2.4,0,3.7,1.2,3.7,3.5v1.8c0,2.3-1.2,3.5-3.7,3.5H165z"/><path class="t" d="M200.5,64c-4.3,0-8-1.2-11-3.7c-3-2.5-4.6-5.5-4.6-9c0-3.5,1.5-6.5,4.6-9c3-2.5,6.7-3.7,11-3.7h26.6v-1.1c0-1.8-0.8-3.4-2.4-4.7s-3.6-1.9-5.9-1.9h-30.3c-2.4,0-3.7-1.2-3.7-3.5v-1.8c0-2.3,1.2-3.5,3.7-3.5h30.3c5.3,0,9.8,1.5,13.6,4.5c3.8,3,5.7,6.6,5.7,10.9v11c0,4.3-1.9,7.9-5.7,10.9c-3.8,3-8.3,4.5-13.6,4.5H200.5z M218.8,55.2c2.3,0,4.2-0.6,5.9-1.9s2.4-2.8,2.4-4.7v-1.1h-26.6c-1.3,0-2.4,0.4-3.2,1.1c-0.9,0.7-1.3,1.7-1.3,2.7c0,1.1,0.4,2,1.3,2.7c0.9,0.7,2,1.1,3.2,1.1H218.8z"/><path class="t" d="M256.1,60.5c0,2.3-1.2,3.5-3.7,3.5h-3.7c-2.4,0-3.7-1.2-3.7-3.5V14.6c0-2.3,1.2-3.5,3.7-3.5h3.7c2.4,0,3.7,1.2,3.7,3.5V60.5z"/><path class="t" d="M300.7,22.2c4.3,0,8,1.2,11,3.7c3,2.5,4.6,5.5,4.6,9c0,3.5-1.5,6.5-4.6,9s-6.7,3.7-11,3.7h-26.6v1.1c0,1.8,0.8,3.4,2.4,4.7c1.6,1.3,3.6,1.9,5.9,1.9h30.3c2.4,0,3.7,1.2,3.7,3.5v1.8c0,2.3-1.2,3.5-3.7,3.5h-30.3c-5.3,0-9.8-1.5-13.6-4.5c-3.8-3-5.7-6.6-5.7-10.9v-11c0-4.3,1.9-7.9,5.7-10.9c3.8-3,8.3-4.5,13.6-4.5H300.7z M282.4,31c-2.3,0-4.3,0.6-5.9,1.9c-1.6,1.3-2.4,2.8-2.4,4.7v1.1h26.6c1.3,0,2.4-0.4,3.2-1.1c0.9-0.7,1.3-1.7,1.3-2.7c0-1.1-0.4-2-1.3-2.7c-0.9-0.7-2-1.1-3.2-1.1H282.4z"/><path class="t" d="M334.3,60.5c0,2.3-1.2,3.5-3.7,3.5H327c-2.4,0-3.7-1.2-3.7-3.5V37.6c0-4.3,1.9-7.9,5.7-10.9c3.8-3,8.3-4.5,13.6-4.5h14.7c5.3,0,9.8,1.5,13.6,4.5c3.8,3,5.7,6.6,5.7,10.9v22.9c0,2.3-1.2,3.5-3.7,3.5h-3.7c-2.4,0-3.7-1.2-3.7-3.5V37.6c0-1.8-0.8-3.4-2.4-4.7s-3.6-1.9-5.9-1.9h-14.7c-2.3,0-4.3,0.6-5.9,1.9c-1.6,1.3-2.4,2.8-2.4,4.7V60.5z"/><path class="t" d="M394.6,31v17.6c0,1.8,0.8,3.4,2.4,4.7c1.6,1.3,3.6,1.9,5.9,1.9h0.9c2.4,0,3.7,1.2,3.7,3.5v1.8c0,2.3-1.2,3.5-3.7,3.5h-0.9c-5.3,0-9.8-1.5-13.6-4.5c-3.8-3-5.7-6.6-5.7-10.9V14.6c0-2.3,1.2-3.5,3.7-3.5h3.7c2.4,0,3.7,1.2,3.7,3.5v7.5h9.2c2.4,0,3.7,1.2,3.7,3.5v1.8c0,2.3-1.2,3.5-3.7,3.5H394.6z"/><path class="t" d="M169.6,84.1h33.9c2.4,0,3.7,1.2,3.7,3.5v1.8c0,2.3-1.2,3.5-3.7,3.5h-33.9c-1.3,0-2.4,0.4-3.2,1.1c-0.9,0.7-1.3,1.7-1.3,2.7c0,1.1,0.4,2,1.3,2.7c0.9,0.7,2,1.1,3.2,1.1h22c4.3,0,8,1.2,11,3.7c3,2.5,4.6,5.5,4.6,9c0,3.5-1.5,6.5-4.6,9c-3,2.5-6.7,3.7-11,3.7h-33.9c-2.4,0-3.7-1.2-3.7-3.5v-1.8c0-2.3,1.2-3.5,3.7-3.5h33.9c1.3,0,2.4-0.4,3.2-1.1c0.9-0.7,1.3-1.7,1.3-2.7c0-1.1-0.4-2-1.3-2.7c-0.9-0.7-2-1.1-3.2-1.1h-22c-4.3,0-8-1.2-11-3.7c-3-2.5-4.6-5.5-4.6-9c0-3.5,1.5-6.5,4.6-9C161.6,85.3,165.3,84.1,169.6,84.1z"/><path class="t" d="M223.8,92.9v17.6c0,1.8,0.8,3.4,2.4,4.7c1.6,1.3,3.6,1.9,5.9,1.9h0.9c2.4,0,3.7,1.2,3.7,3.5v1.8c0,2.3-1.2,3.5-3.7,3.5H232c-5.3,0-9.8-1.5-13.6-4.5c-3.8-3-5.7-6.6-5.7-10.9V76.6c0-2.3,1.2-3.5,3.7-3.5h3.7c2.4,0,3.7,1.2,3.7,3.5v7.5h9.2c2.4,0,3.7,1.2,3.7,3.5v1.8c0,2.3-1.2,3.5-3.7,3.5H223.8z"/><path class="t" d="M257.7,125.9c-4.3,0-8-1.2-11-3.7c-3-2.5-4.6-5.5-4.6-9c0-3.5,1.5-6.5,4.6-9c3-2.5,6.7-3.7,11-3.7h26.6v-1.1c0-1.8-0.8-3.4-2.4-4.7s-3.6-1.9-5.9-1.9h-30.3c-2.4,0-3.7-1.2-3.7-3.5v-1.8c0-2.3,1.2-3.5,3.7-3.5H276c5.3,0,9.8,1.5,13.6,4.5c3.8,3,5.7,6.6,5.7,10.9v11c0,4.3-1.9,7.9-5.7,10.9c-3.8,3-8.3,4.5-13.6,4.5H257.7z M276,117.1c2.3,0,4.2-0.6,5.9-1.9s2.4-2.8,2.4-4.7v-1.1h-26.6c-1.3,0-2.4,0.4-3.2,1.1s-1.3,1.7-1.3,2.7c0,1.1,0.4,2,1.3,2.7c0.9,0.7,2,1.1,3.2,1.1H276z"/><path class="t" d="M350.3,84.1c2.4,0,3.7,1.2,3.7,3.5v1.8c0,2.3-1.2,3.5-3.7,3.5h-30.3c-2.3,0-4.3,0.6-5.9,1.9c-1.6,1.3-2.4,2.8-2.4,4.7v11c0,1.8,0.8,3.4,2.4,4.7c1.6,1.3,3.6,1.9,5.9,1.9h30.3c2.4,0,3.7,1.2,3.7,3.5v1.8c0,2.3-1.2,3.5-3.7,3.5h-30.3c-5.3,0-9.8-1.5-13.6-4.5c-3.8-3-5.7-6.6-5.7-10.9v-11c0-4.3,1.9-7.9,5.7-10.9c3.8-3,8.3-4.5,13.6-4.5H350.3z"/><path class="t" d="M370.5,113v9.4c0,2.3-1.2,3.5-3.7,3.5h-3.7c-2.4,0-3.7-1.2-3.7-3.5V76.6c0-2.3,1.2-3.5,3.7-3.5h3.7c2.4,0,3.7,1.2,3.7,3.5V97l29.9-11c3.2-1.3,5.5-1.9,6.8-1.9h1.8c2.4,0,3.7,1.2,3.7,3.5c0,1.5-0.8,2.6-2.3,3.4L374.7,105l35.7,14c1.5,0.8,2.3,1.9,2.3,3.4c0,2.3-1.2,3.5-3.7,3.5h-1.8c-1.4,0-3.6-0.6-6.8-1.9L370.5,113z"/></svg>
